[Header]
FileType HTR
DataType HTRS
FileVersion 1
NumSegments 64
NumFrames 3
DataFrameRate 30
EulerRotationOrder ZYX
CalibrationUnits mm
RotationUnits Degrees
GlobalAxisofGravity Y
BoneLengthAxis Y
ScaleFactor 1.0
[SegmentNames&Hierarchy]
Hips	GLOBAL
Spine	Hips
Spine1	Spine
Spine2	Spine1
Neck	Spine2
Head	Neck
LeftEye	Head
RightEye	Head
LeftShoulder	Spine2
LeftArm	LeftShoulder
LeftForeArm	LeftArm
LeftHand	LeftForeArm
LeftHandThumb1	LeftHand
LeftHandThumb2	LeftHandThumb1
LeftHandThumb3	LeftHandThumb2
LeftHandThumb4	LeftHandThumb3
LeftHandIndex1	LeftHand
LeftHandIndex2	LeftHandIndex1
LeftHandIndex3	LeftHandIndex2
LeftHandIndex4	LeftHandIndex3
LeftHandMiddle1	LeftHand
LeftHandMiddle2	LeftHandMiddle1
LeftHandMiddle3	LeftHandMiddle2
LeftHandMiddle4	LeftHandMiddle3
LeftHandRing1	LeftHand
LeftHandRing2	LeftHandRing1
LeftHandRing3	LeftHandRing2
LeftHandRing4	LeftHandRing3
LeftHandPinky1	LeftHand
LeftHandPinky2	LeftHandPinky1
LeftHandPinky3	LeftHandPinky2
LeftHandPinky4	LeftHandPinky3
RightShoulder	Spine2
RightArm	RightShoulder
RightForeArm	RightArm
RightHand	RightForeArm
RightHandPinky1	RightHand
RightHandPinky2	RightHandPinky1
RightHandPinky3	RightHandPinky2
RightHandPinky4	RightHandPinky3
RightHandRing1	RightHand
RightHandRing2	RightHandRing1
RightHandRing3	RightHandRing2
RightHandRing4	RightHandRing3
RightHandMiddle1	RightHand
RightHandMiddle2	RightHandMiddle1
RightHandMiddle3	RightHandMiddle2
RightHandMiddle4	RightHandMiddle3
RightHandIndex1	RightHand
RightHandIndex2	RightHandIndex1
RightHandIndex3	RightHandIndex2
RightHandIndex4	RightHandIndex3
RightHandThumb1	RightHand
RightHandThumb2	RightHandThumb1
RightHandThumb3	RightHandThumb2
RightHandThumb4	RightHandThumb3
LeftUpLeg	Hips
LeftLeg	LeftUpLeg
LeftFoot	LeftLeg
LeftToeBase	LeftFoot
RightUpLeg	Hips
RightLeg	RightUpLeg
RightFoot	RightLeg
RightToeBase	RightFoot
[BasePosition]
Hips	0	0	0	0	0	0	1
Spine	0	0	0	0	0	0	1
Spine1	0	0	0	0	0	0	1
Spine2	0	0	0	0	0	0	1
Neck	0	0	0	0	0	0	1
Head	0	0	0	0	0	0	1
LeftEye	0	0	0	0	0	0	1
RightEye	0	0	0	0	0	0	1
LeftShoulder	0	0	0	0	0	0	1
LeftArm	0	0	0	0	0	0	1
LeftForeArm	0	0	0	0	0	0	1
LeftHand	0	0	0	0	0	0	1
LeftHandThumb1	0	0	0	0	0	0	1
LeftHandThumb2	0	0	0	0	0	0	1
LeftHandThumb3	0	0	0	0	0	0	1
LeftHandThumb4	0	0	0	0	0	0	1
LeftHandIndex1	0	0	0	0	0	0	1
LeftHandIndex2	0	0	0	0	0	0	1
LeftHandIndex3	0	0	0	0	0	0	1
LeftHandIndex4	0	0	0	0	0	0	1
LeftHandMiddle1	0	0	0	0	0	0	1
LeftHandMiddle2	0	0	0	0	0	0	1
LeftHandMiddle3	0	0	0	0	0	0	1
LeftHandMiddle4	0	0	0	0	0	0	1
LeftHandRing1	0	0	0	0	0	0	1
LeftHandRing2	0	0	0	0	0	0	1
LeftHandRing3	0	0	0	0	0	0	1
LeftHandRing4	0	0	0	0	0	0	1
LeftHandPinky1	0	0	0	0	0	0	1
LeftHandPinky2	0	0	0	0	0	0	1
LeftHandPinky3	0	0	0	0	0	0	1
LeftHandPinky4	0	0	0	0	0	0	1
RightShoulder	0	0	0	0	0	0	1
RightArm	0	0	0	0	0	0	1
RightForeArm	0	0	0	0	0	0	1
RightHand	0	0	0	0	0	0	1
RightHandPinky1	0	0	0	0	0	0	1
RightHandPinky2	0	0	0	0	0	0	1
RightHandPinky3	0	0	0	0	0	0	1
RightHandPinky4	0	0	0	0	0	0	1
RightHandRing1	0	0	0	0	0	0	1
RightHandRing2	0	0	0	0	0	0	1
RightHandRing3	0	0	0	0	0	0	1
RightHandRing4	0	0	0	0	0	0	1
RightHandMiddle1	0	0	0	0	0	0	1
RightHandMiddle2	0	0	0	0	0	0	1
RightHandMiddle3	0	0	0	0	0	0	1
RightHandMiddle4	0	0	0	0	0	0	1
RightHandIndex1	0	0	0	0	0	0	1
RightHandIndex2	0	0	0	0	0	0	1
RightHandIndex3	0	0	0	0	0	0	1
RightHandIndex4	0	0	0	0	0	0	1
RightHandThumb1	0	0	0	0	0	0	1
RightHandThumb2	0	0	0	0	0	0	1
RightHandThumb3	0	0	0	0	0	0	1
RightHandThumb4	0	0	0	0	0	0	1
LeftUpLeg	0	0	0	0	0	0	1
LeftLeg	0	0	0	0	0	0	1
LeftFoot	0	0	0	0	0	0	1
LeftToeBase	0	0	0	0	0	0	1
RightUpLeg	0	0	0	0	0	0	1
RightLeg	0	0	0	0	0	0	1
RightFoot	0	0	0	0	0	0	1
RightToeBase	0	0	0	0	0	0	1
[Hips]
12	47.16971588	956.8061523	652.3816528	0.5790777802	-0.9200594425	-1.273140669	1.0
13	51.74060822	962.0447388	705.4423828	0.1184613779	-0.2057300955	-0.8841947317	1.0
14	53.58441925	972.7752075	755.751709	-0.2574963868	0.5387483835	-0.3878957629	1.0
[Spine]
12	0	101.8159943	1.315000057	3.929200649	3.296870947	-0.5815386176	1.0
13	0	101.8159943	1.315000057	4.333556175	1.549290776	-0.4986336529	1.0
14	0	101.8159943	1.315000057	4.746973991	-0.3389975131	-0.5193614364	1.0
[Spine1]
12	0	100.8349991	-10.00800037	1.272314548	1.602786064	-0.6731446981	1.0
13	0	100.8349991	-10.00800037	1.484085917	1.056735516	-0.5477612019	1.0
14	0	100.8349991	-10.00800037	1.735248804	0.178736195	-0.4155137539	1.0
[Spine2]
12	0	91	-13.73399925	1.227532983	1.652519703	-0.6343311667	1.0
13	0	91	-13.73399925	1.443185329	1.107596159	-0.5234748125	1.0
14	0	91	-13.73399925	1.711032987	0.2265531719	-0.391964525	1.0
[Neck]
12	0	166.7169952	-25.16200066	-0.0780185461	0.2341539562	-2.776007891	1.0
13	0	166.7169952	-25.16200066	-0.07139597088	0.6594100595	-3.05424571	1.0
14	0	166.7169952	-25.16200066	-0.1172091663	1.148743391	-2.860531807	1.0
[Head]
12	0	96.17900085	16.84999847	-3.290177822	-1.508194327	2.444617271	1.0
13	0	96.17900085	16.84999847	-3.938174725	-0.06752532721	1.638328433	1.0
14	0	96.17900085	16.84999847	-4.256729603	1.852502584	0.2305503339	1.0
[LeftEye]
12	30.6760006	64.09500122	92.83599854	0	0	0	1.0
13	30.6760006	64.09500122	92.83599854	0	0	0	1.0
14	30.6760006	64.09500122	92.83599854	0	0	0	1.0
[RightEye]
12	-30.6760006	64.09500122	92.83499908	0	0	0	1.0
13	-30.6760006	64.09500122	92.83499908	0	0	0	1.0
14	-30.6760006	64.09500122	92.83499908	0	0	0	1.0
[LeftShoulder]
12	45.70400238	109.4599991	-26.28000069	2.198371172	-6.573378563	-14.97854805	1.0
13	45.70400238	109.4599991	-26.28000069	2.325379848	-6.856042385	-15.6725359	1.0
14	45.70400238	109.4599991	-26.28000069	2.447902203	-7.163028717	-16.21662331	1.0
[LeftArm]
12	105.923996	-5.24600029	-22.32099915	18.48616028	6.034824371	-59.33153152	1.0
13	105.923996	-5.24600029	-22.32099915	17.89481735	2.118491173	-57.91971588	1.0
14	105.923996	-5.24600029	-22.32099915	16.73263931	-2.0791924	-56.98432922	1.0
[LeftForeArm]
12	278.414978	-0.0009999999311	0	-6.4556491e-07	-8.930693626	-0.0002276611631	1.0
13	278.414978	-0.0009999999311	0	-3.226657554e-06	-11.44128036	-0.0002173376852	1.0
14	278.414978	-0.0009999999311	0	7.53119366e-07	-14.30739498	-0.000205089018	1.0
[LeftHand]
12	283.2879944	0	0	5.197915554	4.434605122	-14.45845699	1.0
13	283.2879944	0	0	3.487844229	4.803838253	-13.9611721	1.0
14	283.2879944	0	0	2.982336998	5.454048634	-13.01762486	1.0
[LeftHandThumb1]
12	24.6609993	-15.75	26.8239994	5.839803696	2.504242897	11.148386	1.0
13	24.6609993	-15.75	26.8239994	5.839803696	2.504242897	11.148386	1.0
14	24.6609993	-15.75	26.8239994	5.839803696	2.504242897	11.148386	1.0
[LeftHandThumb2]
12	32.29800034	-18.64699936	18.64699936	9.078957558	13.05709553	7.421068192	1.0
13	32.29800034	-18.64699936	18.64699936	9.087471008	14.84328842	8.099181175	1.0
14	32.29800034	-18.64699936	18.64699936	9.102586746	15.09752083	8.125452042	1.0
[LeftHandThumb3]
12	26.52600098	-15.31499958	15.31499958	-1.931788683	-10.17506599	22.18422699	1.0
13	26.52600098	-15.31499958	15.31499958	-1.960952759	-10.1767149	22.45878983	1.0
14	26.52600098	-15.31499958	15.31499958	-1.661611319	-9.46343708	22.30091667	1.0
[LeftHandThumb4]
12	19.54599953	-11.28499985	11.28499985	0	0	0	1.0
13	19.54599953	-11.28499985	11.28499985	0	0	0	1.0
14	19.54599953	-11.28499985	11.28499985	0	0	0	1.0
[LeftHandIndex1]
12	91.09299469	-5.170999527	22.60099792	-0.6791992784	-0.1484293342	-22.52898788	1.0
13	91.09299469	-5.170999527	22.60099792	-0.6098048687	-0.2933704257	-21.51361084	1.0
14	91.09299469	-5.170999527	22.60099792	-0.6281075478	-0.6789502501	-21.11420822	1.0
[LeftHandIndex2]
12	36.76399994	0	0	-0.1983667761	1.509644747	-14.97055531	1.0
13	36.76399994	0	0	-0.1981000602	1.508654356	-14.96056366	1.0
14	36.76399994	0	0	-0.1981954724	1.509003878	-14.9641943	1.0
[LeftHandIndex3]
12	28.83100128	0	0	-0.1983646005	1.509643078	-14.97057152	1.0
13	28.83100128	0	0	-0.1980991364	1.508653045	-14.96056271	1.0
14	28.83100128	0	0	-0.1981929392	1.509012818	-14.96416473	1.0
[LeftHandIndex4]
12	23.92700005	0	0	0	0	0	1.0
13	23.92700005	0	0	0	0	0	1.0
14	23.92700005	0	0	0	0	0	1.0
[LeftHandMiddle1]
12	95.33399963	0	0	-1.935977221	4.796452045	-30.35964584	1.0
13	95.33399963	0	0	-1.882830381	4.805077076	-29.7481842	1.0
14	95.33399963	0	0	-1.859392643	4.760230541	-29.47848701	1.0
[LeftHandMiddle2]
12	36.98199844	0	0	-0.1242165491	1.198516965	-11.83338642	1.0
13	36.98199844	0	0	-0.124119319	1.198076248	-11.82896328	1.0
14	36.98199844	0	0	-0.1242767274	1.198824167	-11.83658314	1.0
[LeftHandMiddle3]
12	29.50900078	0	0	-0.1692862511	1.396428227	-13.82408333	1.0
13	29.50900078	0	0	-0.1691829115	1.395991325	-13.81966209	1.0
14	29.50900078	0	0	-0.1693719178	1.396743178	-13.82726097	1.0
[LeftHandMiddle4]
12	28.3390007	0	0	0	0	0	1.0
13	28.3390007	0	0	0	0	0	1.0
14	28.3390007	0	0	0	0	0	1.0
[LeftHandRing1]
12	91.04499817	-0.4390000105	-18.65100098	-1.94914937	7.20608139	-30.54107094	1.0
13	91.04499817	-0.4390000105	-18.65100098	-1.888283849	7.196333885	-29.84649658	1.0
14	91.04499817	-0.4390000105	-18.65100098	-1.915256977	7.193044186	-30.1528492	1.0
[LeftHandRing2]
12	31.54000092	0	0	-0.323135674	1.916111946	-19.14275932	1.0
13	31.54000092	0	0	-0.3237495124	1.917859793	-19.16096878	1.0
14	31.54000092	0	0	-0.3241850138	1.919119954	-19.17403603	1.0
[LeftHandRing3]
12	29.37700081	0	0	-0.3928984404	2.106276035	-21.13058281	1.0
13	29.37700081	0	0	-0.3935671747	2.10799861	-21.14864349	1.0
14	29.37700081	0	0	-0.3940522969	2.109250784	-21.16178894	1.0
[LeftHandRing4]
12	26.47500038	0	0	0	0	0	1.0
13	26.47500038	0	0	0	0	0	1.0
14	26.47500038	0	0	0	0	0	1.0
[LeftHandPinky1]
12	80.77799988	-4.887000084	-38.06099701	-2.376237154	4.746424675	-35.23139572	1.0
13	80.77799988	-4.887000084	-38.06099701	-2.3623209	4.714178085	-35.11978531	1.0
14	80.77799988	-4.887000084	-38.06099701	-2.39680934	5.158524036	-35.40429306	1.0
[LeftHandPinky2]
12	36	0	0	-0.2605288029	1.72533083	-17.17269325	1.0
13	36	0	0	-0.2616531551	1.728967786	-17.21006584	1.0
14	36	0	0	-0.2650793195	1.739974618	-17.32308578	1.0
[LeftHandPinky3]
12	21.14200211	0	0	-0.260512203	1.725276709	-17.17206001	1.0
13	21.14200211	0	0	-0.2616430223	1.728925586	-17.20954323	1.0
14	21.14200211	0	0	-0.2650769651	1.739961386	-17.32291603	1.0
[LeftHandPinky4]
12	19.75699997	0	0	0	0	0	1.0
13	19.75699997	0	0	0	0	0	1.0
14	19.75699997	0	0	0	0	0	1.0
[RightShoulder]
12	-45.70000076	109.4620056	-26.28000069	2.020501852	6.244531155	13.78550053	1.0
13	-45.70000076	109.4620056	-26.28000069	2.019115925	6.251954079	13.75176811	1.0
14	-45.70000076	109.4620056	-26.28000069	2.01604557	6.214963436	13.80363178	1.0
[RightArm]
12	-105.9280014	-5.248000145	-22.32099915	26.08230019	14.45524311	50.42284393	1.0
13	-105.9280014	-5.248000145	-22.32099915	26.73966789	12.6832056	52.59611511	1.0
14	-105.9280014	-5.248000145	-22.32099915	26.11504364	11.35346794	54.36214066	1.0
[RightForeArm]
12	-278.414978	0	0	4.046112281e-06	21.75085449	6.581742582e-06	1.0
13	-278.414978	0	0	7.506468137e-06	18.56292152	1.030503654e-06	1.0
14	-278.414978	0	0	5.455895916e-06	15.10046005	-3.587575975e-06	1.0
[RightHand]
12	-283.2879944	0	0.0009999999311	5.755299568	12.22853374	0.7884503603	1.0
13	-283.2879944	0	0.0009999999311	7.366528988	13.37332821	1.372459054	1.0
14	-283.2879944	0	0.0009999999311	9.274436951	13.5235815	2.146025896	1.0
[RightHandPinky1]
12	-80.76699829	-4.885000229	-38.06000137	-1.841324329	-2.761815786	28.29204559	1.0
13	-80.76699829	-4.885000229	-38.06000137	-1.75850141	-3.109469891	28.00905609	1.0
14	-80.76699829	-4.885000229	-38.06000137	-1.647908449	-3.649336576	27.79927635	1.0
[RightHandPinky2]
12	-36	0	0.0009999999311	-0.567622304	-2.22325325	28.6610775	1.0
13	-36	0	0.0009999999311	-0.5666033626	-2.221403837	28.63502121	1.0
14	-36	0	0.0009999999311	-0.5696234703	-2.22691083	28.71261978	1.0
[RightHandPinky3]
12	-21.14200211	0	0	-0.1781273037	-1.273312449	15.92774963	1.0
13	-21.14200211	0	0	-0.1777024865	-1.271803617	15.90843678	1.0
14	-21.14200211	0	0	-0.1796478182	-1.278560162	15.99541855	1.0
[RightHandPinky4]
12	-19.75699997	0	0	0	0	0	1.0
13	-19.75699997	0	0	0	0	0	1.0
14	-19.75699997	0	0	0	0	0	1.0
[RightHandRing1]
12	-91.03599548	-0.4390000105	-18.65100098	-1.237811804	-2.583314419	23.34412956	1.0
13	-91.03599548	-0.4390000105	-18.65100098	-1.242852449	-2.672472239	23.41592026	1.0
14	-91.03599548	-0.4390000105	-18.65100098	-1.219840884	-2.760056734	23.07798004	1.0
[RightHandRing2]
12	-31.54000092	0	0	-1.496747255	-3.410693407	47.37760544	1.0
13	-31.54000092	0	0	-1.500003576	-3.413680553	47.43218231	1.0
14	-31.54000092	0	0	-1.504071712	-3.417407274	47.50050354	1.0
[RightHandRing3]
12	-29.37700081	0	0	-0.3716282248	-1.819230914	23.08871078	1.0
13	-29.37700081	0	0	-0.3733661175	-1.823293328	23.14340019	1.0
14	-29.37700081	0	0	-0.3755409718	-1.828386664	23.21177864	1.0
[RightHandRing4]
12	-26.47500038	0	0	0	0	0	1.0
13	-26.47500038	0	0	0	0	0	1.0
14	-26.47500038	0	0	0	0	0	1.0
[RightHandMiddle1]
12	-95.32500458	0	0	-0.9817752242	-0.4654031694	19.59034157	1.0
13	-95.32500458	0	0	-0.9890869856	-0.5125336051	19.70024872	1.0
14	-95.32500458	0	0	-0.9829099178	-0.4197572172	19.61000633	1.0
[RightHandMiddle2]
12	-36.98199844	0	0	-0.8451448083	-2.668911695	35.13697052	1.0
13	-36.98199844	0	0	-0.8484054804	-2.673519373	35.20682526	1.0
14	-36.98199844	0	0	-0.8501828313	-2.676048279	35.24505615	1.0
[RightHandMiddle3]
12	-29.50900078	0	0	-0.2895400524	-1.615295291	20.34858322	1.0
13	-29.50900078	0	0	-0.2915079296	-1.620580435	20.41842461	1.0
14	-29.50900078	0	0	-0.2925788462	-1.623449326	20.45641327	1.0
[RightHandMiddle4]
12	-28.3390007	0	0.0009999999311	0	0	0	1.0
13	-28.3390007	0	0.0009999999311	0	0	0	1.0
14	-28.3390007	0	0.0009999999311	0	0	0	1.0
[RightHandIndex1]
12	-91.08300018	-5.167999744	22.60099792	-0.7554905415	4.277554989	19.12558365	1.0
13	-91.08300018	-5.167999744	22.60099792	-0.7597982883	4.192422867	19.49992943	1.0
14	-91.08300018	-5.167999744	22.60099792	-0.7212203741	4.223377705	18.93182945	1.0
[RightHandIndex2]
12	-36.76399994	0	0	-0.3883636296	-1.857989073	23.61034203	1.0
13	-36.76399994	0	0	-0.3900100887	-1.861739516	23.66108131	1.0
14	-36.76399994	0	0	-0.3908092976	-1.863560677	23.68567657	1.0
[RightHandIndex3]
12	-28.83100128	0	0	-0.07548056543	-0.8334717751	10.34740543	1.0
13	-28.83100128	0	0	-0.07621385157	-0.8375126719	10.39807987	1.0
14	-28.83100128	0	0	-0.07656461746	-0.8394721746	10.42266273	1.0
[RightHandIndex4]
12	-23.92700005	0	0	0	0	0	1.0
13	-23.92700005	0	0	0	0	0	1.0
14	-23.92700005	0	0	0	0	0	1.0
[RightHandThumb1]
12	-24.64799881	-15.72700024	26.82600021	12.78110313	-2.167885065	-4.410644054	1.0
13	-24.64799881	-15.72700024	26.82600021	12.78110313	-2.167885065	-4.410644054	1.0
14	-24.64799881	-15.72700024	26.82600021	12.78110313	-2.167885065	-4.410644054	1.0
[RightHandThumb2]
12	-32.29800034	-18.64699936	18.64699936	8.64852047	-16.38047218	-9.909111023	1.0
13	-32.29800034	-18.64699936	18.64699936	9.434184074	-18.15206337	-10.07766056	1.0
14	-32.29800034	-18.64699936	18.64699936	9.382744789	-19.88286591	-10.45793438	1.0
[RightHandThumb3]
12	-26.52600098	-15.31399918	15.31399918	-15.51433182	-4.779759884	-11.26690865	1.0
13	-26.52600098	-15.31399918	15.31399918	-15.5066824	-4.797869205	-11.26119995	1.0
14	-26.52600098	-15.31399918	15.31399918	-15.48149109	-4.857492924	-11.24237537	1.0
[RightHandThumb4]
12	-19.54599953	-11.28499985	11.28499985	0	0	0	1.0
13	-19.54599953	-11.28499985	11.28499985	0	0	0	1.0
14	-19.54599953	-11.28499985	11.28499985	0	0	0	1.0
[LeftUpLeg]
12	82.07800293	-67.51699829	-15.99599934	-36.65518188	5.706067562	-1.613412261	1.0
13	82.07800293	-67.51699829	-15.99599934	-33.89888382	5.565942764	-2.100031137	1.0
14	82.07800293	-67.51699829	-15.99599934	-29.61769295	5.157268047	-2.829508305	1.0
[LeftLeg]
12	0	-443.7049866	2.845999956	36.45602036	-2.483108044	-4.071809769	1.0
13	0	-443.7049866	2.845999956	39.16513443	-2.668492794	-4.445363522	1.0
14	0	-443.7049866	2.845999956	38.47364044	-3.337407112	-3.920372963	1.0
[LeftFoot]
12	0	-444.2789917	-29.8219986	-0.2284930944	0.03632762656	4.653312206	1.0
13	0	-444.2789917	-29.8219986	-5.211845875	0.1972865462	5.18065834	1.0
14	0	-444.2789917	-29.8219986	-8.398586273	0.3058598638	4.971786976	1.0
[LeftToeBase]
12	0	-87.28699493	107.1060028	-7.099129677	1.336575338e-06	-8.992960261e-07	1.0
13	0	-87.28699493	107.1060028	-7.308616161	1.211619974e-06	-2.781914645e-07	1.0
14	0	-87.28699493	107.1060028	-7.413669109	1.157753431e-07	-1.966869547e-07	1.0
[RightUpLeg]
12	-82.07800293	-67.51699829	-15.99599934	5.529128551	-13.47363758	-5.980435371	1.0
13	-82.07800293	-67.51699829	-15.99599934	-3.296853542	-12.05972481	-5.432208061	1.0
14	-82.07800293	-67.51699829	-15.99599934	-11.57851505	-11.43610764	-4.829733849	1.0
[RightLeg]
12	0	-443.7049866	2.861999989	50.64333344	7.113974571	-1.898927093	1.0
13	0	-443.7049866	2.861999989	63.79705429	3.4094944	-5.616057873	1.0
14	0	-443.7049866	2.861999989	71.13819885	1.403893709	-6.917048931	1.0
[RightFoot]
12	0	-444.2770081	-29.83799934	14.46791172	-2.120732784	12.07981777	1.0
13	0	-444.2770081	-29.83799934	12.83679676	-1.604902625	9.990682602	1.0
14	0	-444.2770081	-29.83799934	8.513065338	-0.8898850679	7.870905399	1.0
[RightToeBase]
12	0	-87.28699493	107.1060028	-13.90737915	-0.03570583463	-0.07913399488	1.0
13	0	-87.28699493	107.1060028	-12.66406536	0.01056801993	0.02347338945	1.0
14	0	-87.28699493	107.1060028	-12.77593899	-2.883181196e-06	2.564584101e-08	1.0
[EndOfFile]
